<svg width="115" height="44" viewBox="0 0 115 44" fill="none" xmlns="http://www.w3.org/2000/svg">
<g clip-path="url(#clip0)">
<path d="M-0.00100708 25.4401V0.326094H3.22399V22.1741H12.137V25.4381L-0.00100708 25.4401ZM21.009 0.326094V25.4381H17.784V0.327094L21.009 0.326094ZM49.003 3.76309C51.496 6.27409 52.743 9.30309 52.743 12.8511C52.743 16.3971 51.496 19.4271 49.003 21.9391C46.51 24.4491 43.503 25.7051 39.981 25.7051C36.459 25.7051 33.452 24.4501 30.958 21.9391C28.465 19.4271 27.219 16.3971 27.219 12.8511C27.219 9.30309 28.465 6.27409 30.959 3.76309C33.452 1.25109 36.459 -0.00390625 39.981 -0.00390625C43.503 -0.00390625 46.511 1.25109 49.003 3.76309ZM39.981 3.27609C37.352 3.27609 35.111 4.21009 33.257 6.07809C31.403 7.94609 30.476 10.2031 30.476 12.8511C30.476 15.4971 31.406 17.7581 33.265 19.6311C35.125 21.5041 37.363 22.4411 39.981 22.4411C42.609 22.4411 44.851 21.5041 46.705 19.6311C48.559 17.7581 49.487 15.4971 49.487 12.8511C49.487 10.2031 48.559 7.94609 46.705 6.07809C44.851 4.21009 42.609 3.27609 39.981 3.27609ZM58.64 0.327094H61.585L71.869 18.2501V0.327094H75.111V25.4391H72.29L61.865 7.29509V25.4401H58.64V0.327094ZM84.918 0.327094V25.4391H81.692V0.327094H84.918ZM110.808 19.4591L113.223 21.6411C110.273 24.3511 107.151 25.7061 103.858 25.7061C100.336 25.7061 97.334 24.4561 94.851 21.9561C92.368 19.4541 91.127 16.4301 91.127 12.8831C91.127 9.34709 92.368 6.32309 94.851 3.81109C97.334 1.30009 100.336 0.0440938 103.858 0.0440938C107.151 0.0440938 110.273 1.40009 113.223 4.10909L110.808 6.32309C108.585 4.33409 106.268 3.34009 103.858 3.34009C101.25 3.34009 99.019 4.27209 97.165 6.13409C95.31 7.99609 94.383 10.2461 94.383 12.8831C94.383 15.5301 95.31 17.7851 97.165 19.6481C99.019 21.5101 101.25 22.4411 103.858 22.4411C106.268 22.4411 108.585 21.4481 110.808 19.4591ZM52.977 40.8641H56.322V41.5371H52.247V34.3101H52.977V40.8641ZM57.537 39.3321C57.558 39.5701 57.615 39.7951 57.71 40.0061C57.8897 40.4125 58.2156 40.7366 58.623 40.9141C58.826 41.0041 59.045 41.0471 59.282 41.0471C59.64 41.0471 59.949 40.9641 60.209 40.7971C60.469 40.6301 60.667 40.4381 60.802 40.2201L61.319 40.6501C61.035 41.0101 60.723 41.2681 60.381 41.4251C60.0357 41.5823 59.6604 41.6625 59.281 41.6601C58.931 41.6601 58.604 41.5971 58.303 41.4711C58.003 41.3451 57.744 41.1711 57.528 40.9461C57.3083 40.7153 57.1345 40.4449 57.016 40.1491C56.8887 39.8309 56.8248 39.4908 56.828 39.1481C56.828 38.7881 56.889 38.4541 57.011 38.1481C57.133 37.8421 57.301 37.5761 57.518 37.3521C57.734 37.1271 57.988 36.9521 58.278 36.8251C58.568 36.7001 58.882 36.6371 59.221 36.6371C59.579 36.6371 59.9 36.7021 60.183 36.8311C60.467 36.9611 60.705 37.1321 60.898 37.3471C61.091 37.5611 61.238 37.8131 61.339 38.1021C61.441 38.3921 61.492 38.6991 61.492 39.0261V39.3321H57.537ZM60.762 38.7811C60.762 38.3251 60.626 37.9561 60.356 37.6731C60.086 37.3901 59.707 37.2491 59.221 37.2491C59.005 37.2491 58.795 37.2921 58.592 37.3761C58.389 37.4621 58.212 37.5761 58.06 37.7191C57.9099 37.8592 57.7863 38.0252 57.695 38.2091C57.6051 38.3864 57.5582 38.5823 57.558 38.7811H60.762ZM63.072 42.4971C63.268 42.7621 63.523 42.9751 63.838 43.1351C64.152 43.2951 64.502 43.3751 64.887 43.3751C65.224 43.3751 65.512 43.3251 65.748 43.2271C65.9681 43.1399 66.1645 43.0018 66.321 42.8241C66.467 42.6541 66.571 42.4541 66.636 42.2271C66.699 41.9991 66.731 41.7551 66.731 41.4971V40.6391H66.711C66.495 40.9661 66.231 41.1971 65.921 41.3331C65.6108 41.4691 65.2756 41.5386 64.937 41.5371C64.593 41.5371 64.27 41.4761 63.97 41.3541C63.6779 41.2376 63.411 41.0658 63.184 40.8481C62.961 40.6331 62.785 40.3781 62.657 40.0781C62.5268 39.7714 62.4612 39.4412 62.464 39.1081C62.464 38.7611 62.525 38.4371 62.647 38.1381C62.769 37.8381 62.935 37.5761 63.149 37.3511C63.362 37.1271 63.615 36.9521 63.909 36.8251C64.202 36.7001 64.526 36.6371 64.877 36.6371C65.019 36.6371 65.169 36.6501 65.327 36.6771C65.6734 36.7373 65.9992 36.883 66.275 37.1011C66.431 37.2211 66.576 37.3711 66.712 37.5561H66.732V36.7591H67.4V41.4971C67.4 41.7551 67.368 42.0311 67.305 42.3231C67.24 42.6161 67.115 42.8851 66.929 43.1301C66.7223 43.3924 66.4568 43.6023 66.154 43.7431C65.822 43.9061 65.39 43.9881 64.856 43.9881C64.384 43.9881 63.961 43.9101 63.589 43.7521C63.2034 43.586 62.858 43.3391 62.576 43.0281L63.072 42.4971ZM63.194 39.0871C63.1934 39.5674 63.3766 40.0296 63.706 40.3791C63.865 40.5451 64.05 40.6791 64.263 40.7761C64.476 40.8761 64.708 40.9241 64.958 40.9241C65.4329 40.927 65.8905 40.746 66.235 40.4191C66.404 40.2591 66.535 40.0671 66.625 39.8421C66.717 39.6181 66.759 39.3661 66.752 39.0871C66.752 38.8351 66.712 38.5991 66.63 38.3771C66.552 38.1612 66.4313 37.9632 66.275 37.7951C66.1151 37.6252 65.9221 37.4898 65.708 37.3971C65.4712 37.2956 65.2156 37.2451 64.958 37.2491C64.708 37.2491 64.476 37.2991 64.263 37.3971C63.9407 37.5455 63.6682 37.7841 63.4785 38.084C63.2889 38.3839 63.19 38.7323 63.194 39.0871ZM71.942 38.6071V38.4851C71.942 37.6611 71.537 37.2491 70.726 37.2491C70.171 37.2491 69.688 37.4361 69.276 37.8111L68.871 37.3311C69.317 36.8681 69.986 36.6371 70.877 36.6371C71.107 36.6371 71.329 36.6711 71.542 36.7391C71.754 36.8061 71.938 36.9111 72.094 37.0511C72.249 37.1911 72.374 37.3651 72.469 37.5761C72.564 37.7861 72.611 38.0401 72.611 38.3321V40.4651C72.611 40.6491 72.62 40.8411 72.636 41.0421C72.653 41.2431 72.672 41.4081 72.692 41.5371H72.043C72.0219 41.4122 72.0069 41.2864 71.998 41.1601C71.9882 41.0273 71.9832 40.8942 71.983 40.7611H71.963C71.766 41.0821 71.535 41.3111 71.268 41.4511C71.001 41.5911 70.674 41.6611 70.289 41.6611C70.079 41.6611 69.878 41.6311 69.681 41.5731C69.4917 41.5187 69.3146 41.4288 69.159 41.3081C68.9989 41.1853 68.8701 41.0265 68.7829 40.8446C68.6957 40.6627 68.6525 40.4628 68.657 40.2611C68.657 39.8731 68.757 39.5681 68.957 39.3471C69.162 39.1223 69.4197 38.9522 69.707 38.8521C70.007 38.7441 70.328 38.6761 70.67 38.6481C71.011 38.6211 71.324 38.6081 71.607 38.6081L71.942 38.6071ZM71.598 39.1581C71.428 39.1581 71.218 39.1681 70.964 39.1841C70.7171 39.2001 70.4725 39.2413 70.234 39.3071C70.0157 39.3642 69.8119 39.4668 69.636 39.6081C69.5539 39.6761 69.4887 39.7623 69.4457 39.8598C69.4026 39.9574 69.3829 40.0636 69.388 40.1701C69.388 40.3261 69.42 40.4601 69.484 40.5731C69.548 40.6851 69.634 40.7761 69.742 40.8481C69.85 40.9191 69.97 40.9711 70.102 41.0021C70.234 41.0321 70.368 41.0471 70.502 41.0471C70.745 41.0471 70.957 41.0071 71.136 40.9241C71.315 40.8431 71.466 40.7331 71.586 40.5941C71.7097 40.4518 71.8018 40.2847 71.856 40.1041C71.913 39.9161 71.942 39.7161 71.942 39.5051V39.1581H71.598ZM74.983 41.5381H74.314V33.8181H74.983V41.5381ZM83.051 35.5041C82.734 35.0341 82.271 34.7991 81.662 34.7991C81.4737 34.7988 81.2862 34.8247 81.105 34.8761C80.9288 34.9245 80.7626 35.0038 80.614 35.1101C80.458 35.2237 80.3324 35.374 80.2483 35.5477C80.1642 35.7215 80.1243 35.9132 80.132 36.1061C80.132 36.4321 80.224 36.6871 80.406 36.8661C80.588 37.0471 80.814 37.1961 81.085 37.3111C81.355 37.4261 81.651 37.5311 81.972 37.6221C82.292 37.7141 82.589 37.8371 82.858 37.9901C83.129 38.1431 83.356 38.3451 83.538 38.5971C83.72 38.8491 83.811 39.1931 83.811 39.6281C83.811 39.9551 83.741 40.2501 83.604 40.5111C83.4701 40.7674 83.2833 40.9923 83.056 41.1711C82.83 41.3471 82.576 41.4831 82.296 41.5781C82.0238 41.6721 81.7379 41.7204 81.45 41.7211C81.01 41.7211 80.593 41.6381 80.198 41.4711C79.7919 41.296 79.4425 41.0114 79.189 40.6491L79.859 40.1691C80.013 40.4351 80.229 40.6471 80.505 40.8081C80.781 40.9681 81.108 41.0481 81.485 41.0481C81.667 41.0481 81.849 41.0181 82.031 40.9611C82.213 40.9031 82.376 40.8181 82.521 40.7051C82.665 40.5941 82.785 40.4551 82.88 40.2921C82.974 40.1281 83.02 39.9421 83.02 39.7301C83.02 39.4791 82.968 39.2701 82.864 39.1031C82.7583 38.9345 82.6166 38.7914 82.449 38.6841C82.2652 38.5664 82.0673 38.4723 81.86 38.4041C81.6342 38.3271 81.4079 38.2517 81.181 38.1781C80.9502 38.1045 80.7233 38.0194 80.501 37.9231C80.2885 37.8322 80.0907 37.7102 79.914 37.5611C79.7377 37.409 79.5962 37.2207 79.499 37.0091C79.394 36.7891 79.341 36.5111 79.341 36.1771C79.341 35.8301 79.407 35.5271 79.539 35.2691C79.6646 35.0179 79.8447 34.7979 80.066 34.6251C80.286 34.4551 80.534 34.3291 80.811 34.2471C81.088 34.1661 81.372 34.1251 81.662 34.1251C82.068 34.1251 82.436 34.1901 82.768 34.3191C83.098 34.4491 83.406 34.6761 83.69 35.0041L83.051 35.5041ZM89.843 39.1481C89.843 39.5091 89.78 39.8421 89.655 40.1481C89.5362 40.4461 89.359 40.7174 89.134 40.9461C88.9066 41.1728 88.6359 41.3513 88.338 41.4711C88.03 41.5971 87.69 41.6611 87.318 41.6611C86.954 41.6611 86.618 41.5971 86.31 41.4711C86.0123 41.3515 85.7418 41.173 85.515 40.9461C85.2895 40.718 85.112 40.447 84.993 40.1491C84.8654 39.831 84.8015 39.4909 84.805 39.1481C84.805 38.7881 84.867 38.4541 84.993 38.1481C85.117 37.8421 85.291 37.5761 85.515 37.3511C85.737 37.1271 86.002 36.9521 86.31 36.8251C86.6309 36.6973 86.9736 36.6334 87.319 36.6371C87.69 36.6371 88.029 36.7001 88.338 36.8251C88.645 36.9521 88.91 37.1271 89.134 37.3511C89.356 37.5761 89.53 37.8411 89.654 38.1471C89.78 38.4541 89.843 38.7871 89.843 39.1471V39.1481ZM89.113 39.1481C89.1152 38.8942 89.0722 38.6419 88.986 38.4031C88.8682 38.0577 88.6427 37.7591 88.3427 37.5514C88.0426 37.3437 87.6838 37.2377 87.319 37.2491C87.042 37.2491 86.793 37.2991 86.574 37.3971C86.354 37.4971 86.168 37.6311 86.016 37.8001C85.864 37.9711 85.746 38.1721 85.661 38.4031C85.577 38.6341 85.534 38.8831 85.534 39.1481C85.534 39.4141 85.577 39.6621 85.661 39.8941C85.746 40.1251 85.864 40.3261 86.016 40.4951C86.168 40.6671 86.354 40.8011 86.574 40.8991C86.794 40.9981 87.042 41.0471 87.319 41.0471C87.596 41.0471 87.844 40.9981 88.064 40.8991C88.284 40.8011 88.471 40.6671 88.626 40.4951C88.782 40.3261 88.902 40.1251 88.986 39.8941C89.071 39.6621 89.113 39.4141 89.113 39.1481ZM91.88 41.5381H91.21V33.8181H91.88V41.5381ZM96.917 41.5381C96.9041 41.4104 96.8961 41.2824 96.893 41.1541C96.8888 41.0265 96.8869 40.8988 96.887 40.7711H96.867C96.793 40.9011 96.698 41.0211 96.583 41.1291C96.468 41.2391 96.34 41.3311 96.198 41.4091C96.056 41.4881 95.905 41.5491 95.747 41.5941C95.587 41.6381 95.431 41.6601 95.276 41.6601C94.667 41.6601 94.217 41.4981 93.927 41.1751C93.637 40.8521 93.492 40.3911 93.492 39.7921V36.7591H94.161V39.4041C94.161 39.6701 94.181 39.9041 94.221 40.1081C94.262 40.3131 94.331 40.4841 94.43 40.6231C94.527 40.7631 94.659 40.8691 94.825 40.9401C94.99 41.0111 95.197 41.0471 95.448 41.0471C95.481 41.0471 95.576 41.0341 95.732 41.0071C95.9107 40.9692 96.0788 40.892 96.224 40.7811C96.395 40.6591 96.549 40.4761 96.684 40.2311C96.819 39.9851 96.887 39.6451 96.887 39.2091V36.7591H97.556V40.4861C97.5635 40.8372 97.5805 41.188 97.607 41.5381H96.917ZM101.581 37.3711H100.212V40.1901C100.212 40.3671 100.229 40.5111 100.263 40.6231C100.297 40.7371 100.344 40.8231 100.405 40.8841C100.465 40.945 100.54 40.9888 100.623 41.0111C100.707 41.0361 100.8 41.0471 100.902 41.0471C101.016 41.0471 101.135 41.0301 101.257 40.9961C101.377 40.9621 101.49 40.9181 101.591 40.8641L101.621 41.4861C101.211 41.6632 100.755 41.7063 100.319 41.6091C100.179 41.5746 100.049 41.5078 99.939 41.4141C99.8161 41.3084 99.719 41.176 99.655 41.0271C99.58 40.8641 99.543 40.6491 99.543 40.3841V37.3711H98.54V36.7591H99.543V35.4111H100.213V36.7591H101.581V37.3711ZM103.466 34.9221C103.466 35.0651 103.416 35.1821 103.314 35.2741C103.224 35.3608 103.105 35.4098 102.98 35.4111C102.855 35.4101 102.735 35.361 102.645 35.2741C102.595 35.2301 102.556 35.1758 102.53 35.115C102.503 35.0542 102.49 34.9884 102.492 34.9221C102.492 34.7791 102.543 34.6621 102.645 34.5701C102.735 34.4827 102.855 34.4333 102.98 34.4321C103.101 34.4321 103.212 34.4781 103.314 34.5701C103.415 34.6611 103.466 34.7791 103.466 34.9221ZM103.314 41.5371H102.644V36.7601H103.314V41.5371ZM109.72 39.1471C109.72 39.5091 109.657 39.8421 109.533 40.1491C109.407 40.4551 109.233 40.7201 109.011 40.9461C108.784 41.1727 108.513 41.3513 108.215 41.4711C107.891 41.6008 107.544 41.6653 107.195 41.6611C106.831 41.6611 106.495 41.5971 106.188 41.4711C105.89 41.3515 105.619 41.173 105.392 40.9461C105.167 40.7175 104.99 40.4466 104.87 40.1491C104.742 39.831 104.679 39.4909 104.682 39.1481C104.682 38.7881 104.744 38.4541 104.87 38.1481C104.995 37.8421 105.169 37.5761 105.392 37.3511C105.614 37.1271 105.88 36.9521 106.188 36.8251C106.508 36.6972 106.851 36.6334 107.196 36.6371C107.568 36.6371 107.906 36.7001 108.215 36.8251C108.522 36.9521 108.787 37.1271 109.011 37.3511C109.233 37.5761 109.407 37.8411 109.533 38.1471C109.657 38.4541 109.72 38.7871 109.72 39.1471ZM108.99 39.1471C108.992 38.8936 108.949 38.6418 108.864 38.4031C108.785 38.1805 108.662 37.9756 108.504 37.8001C108.346 37.6285 108.154 37.4913 107.941 37.3971C107.706 37.2952 107.452 37.2448 107.196 37.2491C106.919 37.2491 106.67 37.2991 106.451 37.3971C106.231 37.4971 106.046 37.6311 105.893 37.8001C105.738 37.9768 105.618 38.1814 105.539 38.4031C105.454 38.6341 105.412 38.8831 105.412 39.1481C105.412 39.4141 105.454 39.6621 105.539 39.8941C105.623 40.1251 105.742 40.3261 105.893 40.4951C106.046 40.6671 106.231 40.8011 106.451 40.8991C106.671 40.9981 106.919 41.0471 107.196 41.0471C107.473 41.0471 107.721 40.9981 107.941 40.8991C108.161 40.8011 108.348 40.6671 108.503 40.4951C108.659 40.3261 108.779 40.1251 108.863 39.8941C108.948 39.6621 108.99 39.4141 108.99 39.1481V39.1471ZM111.574 36.7591C111.588 36.8891 111.596 37.0161 111.6 37.1421C111.603 37.2681 111.605 37.3961 111.605 37.5251H111.625C111.699 37.3961 111.794 37.2771 111.909 37.1671C112.147 36.9481 112.434 36.789 112.746 36.7031C112.904 36.6591 113.061 36.6371 113.216 36.6371C113.825 36.6371 114.274 36.7981 114.565 37.1221C114.855 37.4451 115 37.9061 115 38.5051V41.5371H114.331V38.8931C114.331 38.3621 114.241 37.9561 114.057 37.6731C113.875 37.3901 113.537 37.2491 113.044 37.2491C112.949 37.2578 112.855 37.2715 112.761 37.2901C112.582 37.3274 112.414 37.4039 112.269 37.5141C112.076 37.6611 111.918 37.8498 111.808 38.0661C111.673 38.3111 111.605 38.6511 111.605 39.0871V41.5371H110.936V37.8111C110.928 37.46 110.911 37.1092 110.885 36.7591H111.574ZM42.982 38.7261H-7.08003e-06V37.3801H42.983L42.982 38.7261Z" fill="#3172B9"/>
</g>
<defs>
<clipPath id="clip0">
<rect width="115" height="44" fill="white"/>
</clipPath>
</defs>
</svg>
